<svg width="30" height="29" viewBox="0 0 30 29" fill="none" xmlns="http://www.w3.org/2000/svg">
<path fill-rule="evenodd" clip-rule="evenodd" d="M19.6875 1.8125C15.0276 1.8125 11.25 5.46418 11.25 9.96875C11.25 10.4445 11.2922 10.9114 11.3735 11.3661C11.4575 11.836 11.3335 12.2314 11.0971 12.4599L2.97335 20.3129C2.27009 20.9927 1.875 21.9147 1.875 22.8761V26.2812C1.875 26.7818 2.29473 27.1875 2.8125 27.1875H7.5C8.01777 27.1875 8.4375 26.7818 8.4375 26.2812V24.4688H10.3125C10.8303 24.4688 11.25 24.063 11.25 23.5625V21.75H13.125C13.3736 21.75 13.6121 21.6545 13.7879 21.4846L17.1104 18.2728C17.3468 18.0443 17.7559 17.9244 18.242 18.0056C18.7123 18.0842 19.1953 18.125 19.6875 18.125C24.3474 18.125 28.125 14.4733 28.125 9.96875C28.125 5.46418 24.3474 1.8125 19.6875 1.8125ZM19.6875 5.4375C19.1697 5.4375 18.75 5.84324 18.75 6.34375C18.75 6.84426 19.1697 7.25 19.6875 7.25C21.2408 7.25 22.5 8.46723 22.5 9.96875C22.5 10.4693 22.9197 10.875 23.4375 10.875C23.9553 10.875 24.375 10.4693 24.375 9.96875C24.375 7.46621 22.2763 5.4375 19.6875 5.4375Z" fill="url(#paint0_linear_6957_1487)"/>
<defs>
<linearGradient id="paint0_linear_6957_1487" x1="15" y1="1.8125" x2="15" y2="27.1875" gradientUnits="userSpaceOnUse">
<stop stop-color="#FEE407"/>
<stop offset="1" stop-color="#9F911A"/>
</linearGradient>
</defs>
</svg>
