<svg width="22" height="27" viewBox="0 0 22 27" fill="none" xmlns="http://www.w3.org/2000/svg">
<path fill-rule="evenodd" clip-rule="evenodd" d="M11 0.8125C7.37563 0.8125 4.4375 3.65269 4.4375 7.15625V10.7812C2.36643 10.7812 0.6875 12.4042 0.6875 14.4062V22.5625C0.6875 24.5645 2.36643 26.1875 4.4375 26.1875H17.5625C19.6336 26.1875 21.3125 24.5645 21.3125 22.5625V14.4062C21.3125 12.4042 19.6336 10.7812 17.5625 10.7812V7.15625C17.5625 3.65269 14.6244 0.8125 11 0.8125ZM15.6875 10.7812V7.15625C15.6875 4.65371 13.5888 2.625 11 2.625C8.41117 2.625 6.3125 4.65371 6.3125 7.15625V10.7812H15.6875Z" fill="url(#paint0_linear_6987_130)"/>
<defs>
<linearGradient id="paint0_linear_6987_130" x1="11" y1="0.8125" x2="11" y2="26.1875" gradientUnits="userSpaceOnUse">
<stop stop-color="#FEE407"/>
<stop offset="1" stop-color="#9F911A"/>
</linearGradient>
</defs>
</svg>
