<svg width="33" height="39" viewBox="0 0 33 39" fill="none" xmlns="http://www.w3.org/2000/svg">
<path d="M26.8125 13.65V9.75C26.8125 7.16414 25.726 4.68419 23.792 2.85571C21.8581 1.02723 19.235 0 16.5 0C13.765 0 11.1419 1.02723 9.20796 2.85571C7.27399 4.68419 6.1875 7.16414 6.1875 9.75V13.65C4.54647 13.65 2.97266 14.2663 1.81228 15.3634C0.651896 16.4605 0 17.9485 0 19.5V33.15C0 34.7015 0.651896 36.1895 1.81228 37.2866C2.97266 38.3837 4.54647 39 6.1875 39H26.8125C28.4535 39 30.0273 38.3837 31.1877 37.2866C32.3481 36.1895 33 34.7015 33 33.15V19.5C33 17.9485 32.3481 16.4605 31.1877 15.3634C30.0273 14.2663 28.4535 13.65 26.8125 13.65ZM10.3125 9.75C10.3125 8.19848 10.9644 6.71051 12.1248 5.61343C13.2852 4.51634 14.859 3.9 16.5 3.9C18.141 3.9 19.7148 4.51634 20.8752 5.61343C22.0356 6.71051 22.6875 8.19848 22.6875 9.75V13.65H10.3125V9.75ZM28.875 33.15C28.875 33.6672 28.6577 34.1632 28.2709 34.5289C27.8841 34.8946 27.3595 35.1 26.8125 35.1H6.1875C5.64049 35.1 5.11589 34.8946 4.72909 34.5289C4.3423 34.1632 4.125 33.6672 4.125 33.15V19.5C4.125 18.9828 4.3423 18.4868 4.72909 18.1211C5.11589 17.7554 5.64049 17.55 6.1875 17.55H26.8125C27.3595 17.55 27.8841 17.7554 28.2709 18.1211C28.6577 18.4868 28.875 18.9828 28.875 19.5V33.15Z" fill="url(#paint0_linear_4698_323)"/>
<defs>
<linearGradient id="paint0_linear_4698_323" x1="16.5" y1="0" x2="16.5" y2="39" gradientUnits="userSpaceOnUse">
<stop stop-color="#FEE407"/>
<stop offset="1" stop-color="#9F911A"/>
</linearGradient>
</defs>
</svg>
