<svg width="32" height="32" viewBox="0 0 32 32" fill="none" xmlns="http://www.w3.org/2000/svg">
<path d="M22.875 15.1V12.5C22.875 10.7761 22.1507 9.12279 20.8614 7.90381C19.572 6.68482 17.8234 6 16 6C14.1766 6 12.428 6.68482 11.1386 7.90381C9.84933 9.12279 9.125 10.7761 9.125 12.5V15.1C8.03098 15.1 6.98177 15.5109 6.20818 16.2423C5.4346 16.9737 5 17.9657 5 19V28.1C5 29.1343 5.4346 30.1263 6.20818 30.8577C6.98177 31.5891 8.03098 32 9.125 32H22.875C23.969 32 25.0182 31.5891 25.7918 30.8577C26.5654 30.1263 27 29.1343 27 28.1V19C27 17.9657 26.5654 16.9737 25.7918 16.2423C25.0182 15.5109 23.969 15.1 22.875 15.1ZM11.875 12.5C11.875 11.4657 12.3096 10.4737 13.0832 9.74228C13.8568 9.01089 14.906 8.6 16 8.6C17.094 8.6 18.1432 9.01089 18.9168 9.74228C19.6904 10.4737 20.125 11.4657 20.125 12.5V15.1H11.875V12.5ZM24.25 28.1C24.25 28.4448 24.1051 28.7754 23.8473 29.0192C23.5894 29.263 23.2397 29.4 22.875 29.4H9.125C8.76033 29.4 8.41059 29.263 8.15273 29.0192C7.89487 28.7754 7.75 28.4448 7.75 28.1V19C7.75 18.6552 7.89487 18.3246 8.15273 18.0808C8.41059 17.837 8.76033 17.7 9.125 17.7H22.875C23.2397 17.7 23.5894 17.837 23.8473 18.0808C24.1051 18.3246 24.25 18.6552 24.25 19V28.1Z" fill="url(#paint0_linear_6052_4549)"/>
<defs>
<linearGradient id="paint0_linear_6052_4549" x1="16" y1="6" x2="16" y2="32" gradientUnits="userSpaceOnUse">
<stop stop-color="#FEE407"/>
<stop offset="1" stop-color="#9F911A"/>
</linearGradient>
</defs>
</svg>
